<svg width="15" height="15" viewBox="0 0 15 15" fill="none" xmlns="http://www.w3.org/2000/svg">
<g clip-path="url(#clip0_641_473)">
<path fill-rule="evenodd" clip-rule="evenodd" d="M12.3602 2.76873C12.5146 2.70372 12.6837 2.6813 12.8497 2.7038C13.0158 2.7263 13.1728 2.7929 13.3043 2.89666C13.4359 3.00042 13.5373 3.13755 13.5979 3.29378C13.6585 3.45001 13.6761 3.61963 13.6489 3.78498L12.2314 12.3831C12.0939 13.2125 11.1839 13.6881 10.4233 13.275C9.78704 12.9294 8.84204 12.3969 7.99204 11.8412C7.56704 11.5631 6.26516 10.6725 6.42516 10.0387C6.56266 9.49685 8.75016 7.4606 10.0002 6.24998C10.4908 5.77435 10.267 5.49998 9.68766 5.93748C8.24829 7.02373 5.93891 8.6756 5.17516 9.1406C4.50141 9.5506 4.15016 9.6206 3.73016 9.5506C2.96391 9.4231 2.25329 9.2256 1.67329 8.98498C0.889539 8.65998 0.927664 7.58248 1.67266 7.26873L12.3602 2.76873Z" fill="#FFFCFA"/>
</g>
<defs>
<clipPath id="clip0_641_473">
<rect width="15" height="15" fill="white"/>
</clipPath>
</defs>
</svg>
