<svg width="36" height="27" viewBox="0 0 36 27" fill="none" xmlns="http://www.w3.org/2000/svg">
<g filter="url(#filter0_d_641_357)">
<path d="M5.55556 19C5.11481 19 4.74563 18.848 4.448 18.544C4.14933 18.2411 4 17.8653 4 17.4167C4 16.9681 4.14933 16.5923 4.448 16.2893C4.74563 15.9853 5.11481 15.8333 5.55556 15.8333H30.4444C30.8852 15.8333 31.2544 15.9853 31.552 16.2893C31.8507 16.5923 32 16.9681 32 17.4167C32 17.8653 31.8507 18.2411 31.552 18.544C31.2544 18.848 30.8852 19 30.4444 19H5.55556ZM5.55556 11.0833C5.11481 11.0833 4.74563 10.9313 4.448 10.6273C4.14933 10.3244 4 9.94861 4 9.5C4 9.05139 4.14933 8.67508 4.448 8.37108C4.74563 8.06814 5.11481 7.91667 5.55556 7.91667H30.4444C30.8852 7.91667 31.2544 8.06814 31.552 8.37108C31.8507 8.67508 32 9.05139 32 9.5C32 9.94861 31.8507 10.3244 31.552 10.6273C31.2544 10.9313 30.8852 11.0833 30.4444 11.0833H5.55556ZM5.55556 3.16667C5.11481 3.16667 4.74563 3.01519 4.448 2.71225C4.14933 2.40825 4 2.03194 4 1.58333C4 1.13472 4.14933 0.758417 4.448 0.454417C4.74563 0.151473 5.11481 0 5.55556 0H30.4444C30.8852 0 31.2544 0.151473 31.552 0.454417C31.8507 0.758417 32 1.13472 32 1.58333C32 2.03194 31.8507 2.40825 31.552 2.71225C31.2544 3.01519 30.8852 3.16667 30.4444 3.16667H5.55556Z" fill="#2E364A"/>
<path d="M4.80528 18.1942L4.80406 18.193C4.60306 17.9891 4.5 17.7418 4.5 17.4167C4.5 17.0915 4.60306 16.8442 4.80406 16.6404L4.80528 16.6391C5.00513 16.435 5.24384 16.3333 5.55556 16.3333H30.4444C30.7562 16.3333 30.9949 16.435 31.1947 16.6391L31.1959 16.6404C31.3969 16.8442 31.5 17.0915 31.5 17.4167C31.5 17.7418 31.3969 17.9891 31.1959 18.193L31.1947 18.1942C30.9949 18.3983 30.7562 18.5 30.4444 18.5H5.55556C5.24384 18.5 5.00513 18.3983 4.80528 18.1942ZM4.80528 10.2775L4.80406 10.2763C4.60306 10.0724 4.5 9.82518 4.5 9.5C4.5 9.17481 4.60309 8.92667 4.80467 8.72149C5.00438 8.51821 5.24328 8.41667 5.55556 8.41667H30.4444C30.7567 8.41667 30.9956 8.51821 31.1953 8.72149C31.3969 8.92667 31.5 9.17481 31.5 9.5C31.5 9.82518 31.3969 10.0724 31.1959 10.2763L31.1947 10.2775C30.9949 10.4817 30.7562 10.5833 30.4444 10.5833H5.55556C5.24384 10.5833 5.00513 10.4817 4.80528 10.2775ZM5.55556 2.66667C5.24328 2.66667 5.00438 2.56512 4.80467 2.36184C4.60309 2.15666 4.5 1.90852 4.5 1.58333C4.5 1.25814 4.60309 1.01 4.80467 0.804828C5.00438 0.601547 5.24328 0.5 5.55556 0.5H30.4444C30.7567 0.5 30.9956 0.601547 31.1953 0.804828C31.3969 1.01 31.5 1.25814 31.5 1.58333C31.5 1.90852 31.3969 2.15666 31.1953 2.36184C30.9956 2.56512 30.7567 2.66667 30.4444 2.66667H5.55556Z" stroke="black"/>
</g>
<defs>
<filter id="filter0_d_641_357" x="0" y="0" width="36" height="27" filterUnits="userSpaceOnUse" color-interpolation-filters="sRGB">
<feFlood flood-opacity="0" result="BackgroundImageFix"/>
<feColorMatrix in="SourceAlpha" type="matrix" values="0 0 0 0 0 0 0 0 0 0 0 0 0 0 0 0 0 0 127 0" result="hardAlpha"/>
<feOffset dy="4"/>
<feGaussianBlur stdDeviation="2"/>
<feComposite in2="hardAlpha" operator="out"/>
<feColorMatrix type="matrix" values="0 0 0 0 0 0 0 0 0 0 0 0 0 0 0 0 0 0 0.25 0"/>
<feBlend mode="normal" in2="BackgroundImageFix" result="effect1_dropShadow_641_357"/>
<feBlend mode="normal" in="SourceGraphic" in2="effect1_dropShadow_641_357" result="shape"/>
</filter>
</defs>
</svg>
