<svg width="15" height="15" viewBox="0 0 15 15" fill="none" xmlns="http://www.w3.org/2000/svg">
<path d="M4.97803 3.87625C4.86187 3.85934 4.74343 3.88272 4.64241 3.9425H4.63366C4.39928 4.08 4.18803 4.25313 4.00803 4.45688C3.85803 4.63 3.77678 4.805 3.75553 4.97375C3.74303 5.07375 3.75178 5.175 3.78116 5.27062L3.79241 5.27688C3.96116 5.7725 4.18116 6.24938 4.44991 6.69812C4.79644 7.32843 5.22288 7.91137 5.71866 8.4325L5.73366 8.45375L5.75741 8.47125L5.77178 8.48813L5.78928 8.50312C6.31224 9.0004 6.89654 9.42886 7.52803 9.77813C8.24991 10.1713 8.68803 10.3569 8.95116 10.4344V10.4381C9.02803 10.4619 9.09803 10.4725 9.16866 10.4725C9.39275 10.4559 9.60485 10.3649 9.77116 10.2137C9.97428 10.0337 10.1462 9.82188 10.2799 9.58625V9.58188C10.4055 9.34438 10.363 9.12063 10.1818 8.96875C9.81772 8.65065 9.42405 8.36811 9.00616 8.125C8.72616 7.97312 8.44178 8.065 8.32678 8.21875L8.08116 8.52875C7.95491 8.6825 7.72616 8.66125 7.72616 8.66125L7.71991 8.665C6.01303 8.22938 5.55741 6.50125 5.55741 6.50125C5.55741 6.50125 5.53616 6.26625 5.69428 6.14625L6.00178 5.89875C6.14928 5.77875 6.25178 5.495 6.09366 5.215C5.85216 4.79673 5.57018 4.40317 5.25178 4.04C5.18234 3.95453 5.08495 3.89632 4.97678 3.87563L4.97803 3.87625ZM7.86241 3.125C7.77953 3.125 7.70004 3.15792 7.64143 3.21653C7.58283 3.27513 7.54991 3.35462 7.54991 3.4375C7.54991 3.52038 7.58283 3.59987 7.64143 3.65847C7.70004 3.71708 7.77953 3.75 7.86241 3.75C8.65241 3.75 9.30866 4.00812 9.82803 4.50312C10.0949 4.77375 10.303 5.09438 10.4393 5.44563C10.5762 5.7975 10.6387 6.17313 10.6224 6.54938C10.6189 6.63226 10.6485 6.71312 10.7047 6.77419C10.7608 6.83526 10.8389 6.87152 10.9218 6.875C11.0047 6.87848 11.0855 6.8489 11.1466 6.79275C11.2077 6.73661 11.2439 6.65851 11.2474 6.57562C11.2668 6.1128 11.19 5.65099 11.0218 5.21937C10.8529 4.78571 10.5967 4.39132 10.2693 4.06063L10.263 4.05437C9.61866 3.43875 8.80366 3.125 7.86241 3.125Z" fill="#FFFCFA"/>
<path d="M7.83984 4.15248C7.75696 4.15248 7.67748 4.1854 7.61887 4.24401C7.56027 4.30261 7.52734 4.3821 7.52734 4.46498C7.52734 4.54786 7.56027 4.62735 7.61887 4.68595C7.67748 4.74456 7.75696 4.77748 7.83984 4.77748H7.85047C8.42047 4.81811 8.83547 5.00811 9.12609 5.31998C9.42422 5.64123 9.57859 6.04061 9.56672 6.53436C9.56481 6.61724 9.59591 6.69748 9.65317 6.75743C9.71042 6.81738 9.78915 6.85214 9.87203 6.85404C9.95491 6.85595 10.0352 6.82485 10.0951 6.7676C10.1551 6.71034 10.1898 6.63161 10.1917 6.54873C10.2067 5.90061 9.99797 5.34123 9.58422 4.89498V4.89373C9.16109 4.43998 8.58047 4.19998 7.88172 4.15311L7.87109 4.15186L7.83984 4.15248Z" fill="#FFFCFA"/>
<path d="M7.82825 5.19945C7.78643 5.19576 7.74429 5.20054 7.70436 5.21349C7.66442 5.22644 7.62751 5.24731 7.59581 5.27485C7.56412 5.30239 7.53831 5.33603 7.5199 5.37376C7.5015 5.4115 7.49089 5.45255 7.4887 5.49448C7.48652 5.53641 7.49281 5.57835 7.50719 5.61779C7.52157 5.65723 7.54375 5.69337 7.57241 5.72406C7.60107 5.75474 7.63561 5.77933 7.67399 5.79636C7.71236 5.8134 7.75377 5.82253 7.79575 5.8232C8.057 5.83695 8.22387 5.9157 8.32887 6.02133C8.4345 6.12758 8.51325 6.2982 8.52762 6.56508C8.5284 6.60701 8.53762 6.64836 8.55472 6.68667C8.57182 6.72497 8.59645 6.75943 8.62716 6.78801C8.65786 6.81659 8.694 6.83869 8.73343 6.85301C8.77285 6.86732 8.81476 6.87355 8.85664 6.87133C8.89853 6.8691 8.93954 6.85847 8.97722 6.84006C9.01491 6.82165 9.04851 6.79584 9.07601 6.76417C9.10352 6.7325 9.12436 6.69562 9.13731 6.65573C9.15026 6.61583 9.15504 6.57374 9.15137 6.53195C9.13137 6.15695 9.01387 5.8257 8.77325 5.58195C8.53137 5.3382 8.202 5.21945 7.82825 5.19945Z" fill="#FFFCFA"/>
<path fill-rule="evenodd" clip-rule="evenodd" d="M4.41676 1.48991C6.40555 1.04535 8.46796 1.04535 10.4568 1.48991L10.6686 1.53679C11.25 1.66676 11.784 1.95537 12.2112 2.37055C12.6384 2.78574 12.9421 3.31124 13.0886 3.88866C13.5934 5.87797 13.5934 7.96186 13.0886 9.95116C12.9421 10.5286 12.6384 11.0541 12.2112 11.4693C11.784 11.8845 11.25 12.1731 10.6686 12.303L10.4561 12.3499C9.21052 12.6285 7.93237 12.7334 6.65801 12.6618L4.99988 14.1455C4.93737 14.2015 4.86098 14.2397 4.77869 14.256C4.69639 14.2724 4.61121 14.2664 4.53204 14.2386C4.45286 14.2109 4.38259 14.1623 4.32856 14.0981C4.27453 14.0339 4.23873 13.9564 4.22488 13.8737L3.95051 12.2349C3.42437 12.0712 2.94901 11.7753 2.56986 11.3755C2.19071 10.9756 1.92044 10.4852 1.78488 9.95116C1.28004 7.96186 1.28004 5.87797 1.78488 3.88866C1.93139 3.31124 2.23513 2.78574 2.66234 2.37055C3.08955 1.95537 3.62351 1.66676 4.20488 1.53679L4.41676 1.48991ZM10.2524 2.40429C8.39818 1.98979 6.47533 1.98979 4.62113 2.40429L4.40863 2.45179C3.99658 2.54407 3.61817 2.74876 3.31543 3.04312C3.01268 3.33748 2.79745 3.70999 2.69363 4.11929C2.2272 5.95724 2.2272 7.88259 2.69363 9.72054C2.7975 10.1299 3.01283 10.5025 3.31569 10.7968C3.61855 11.0912 3.99709 11.2959 4.40926 11.388L4.46551 11.4005C4.5565 11.4209 4.63936 11.4679 4.70349 11.5356C4.76762 11.6033 4.8101 11.6886 4.82551 11.7805L5.00926 12.8793L6.17926 11.8324C6.22598 11.7905 6.28065 11.7584 6.34002 11.738C6.39939 11.7176 6.46225 11.7093 6.52488 11.7137C7.77429 11.8023 9.02996 11.7086 10.2524 11.4355L10.4643 11.388C10.8764 11.2959 11.255 11.0912 11.5578 10.7968C11.8607 10.5025 12.076 10.1299 12.1799 9.72054C12.6461 7.88304 12.6461 5.95741 12.1799 4.11929C12.076 3.70991 11.8607 3.33735 11.5578 3.04298C11.255 2.74861 10.8764 2.54397 10.4643 2.45179L10.2524 2.40429Z" fill="#FFFCFA"/>
</svg>
